<svg width="36" height="36" viewBox="0 0 36 36" fill="none" xmlns="http://www.w3.org/2000/svg">
<path d="M27.2237 15.9374L22.6286 20.548C23.0205 21.6368 23.1829 23.4604 21.4951 25.7042C21.377 25.862 21.2263 25.9924 21.0532 26.0866C20.8802 26.1808 20.6888 26.2365 20.4922 26.2499C20.4595 26.2499 20.4277 26.2499 20.3951 26.2499C20.2144 26.2499 20.0355 26.2144 19.8686 26.1452C19.7016 26.076 19.55 25.9747 19.4223 25.8469L15.2749 21.6952L11.6114 25.3613C11.4824 25.4903 11.3075 25.5628 11.125 25.5628C10.9426 25.5628 10.7676 25.4903 10.6386 25.3613C10.5096 25.2323 10.4371 25.0573 10.4371 24.8749C10.4371 24.6925 10.5096 24.5175 10.6386 24.3885L14.3047 20.725L10.1539 16.5742C10.0175 16.4376 9.91135 16.2738 9.84242 16.0935C9.77349 15.9131 9.74331 15.7203 9.75385 15.5275C9.76439 15.3347 9.81541 15.1463 9.90359 14.9745C9.99177 14.8028 10.1151 14.6515 10.2656 14.5306C12.4502 12.768 14.541 13.1144 15.4563 13.4014L20.0625 8.77882C20.1902 8.6511 20.3418 8.54979 20.5086 8.48067C20.6755 8.41155 20.8543 8.37598 21.0349 8.37598C21.2155 8.37598 21.3943 8.41155 21.5611 8.48067C21.728 8.54979 21.8796 8.6511 22.0073 8.77882L27.2228 13.9935C27.4806 14.2512 27.6255 14.6008 27.6256 14.9653C27.6258 15.3298 27.4812 15.6795 27.2237 15.9374Z" fill="#35394C"/>
</svg>
