<svg width="36" height="36" viewBox="0 0 36 36" fill="none" xmlns="http://www.w3.org/2000/svg">
<path d="M21.62 8L14.2447 8.00061C14.0641 8.00059 13.8853 8.03614 13.7184 8.10524C13.5516 8.17434 13.4 8.27564 13.2723 8.40334C13.1446 8.53104 13.0433 8.68264 12.9742 8.84949C12.9051 9.01634 12.8695 9.19517 12.8696 9.37577L12.8799 15.904C12.0291 16.3488 10.3052 17.583 10.008 20.3728C9.98719 20.5647 10.007 20.7589 10.0662 20.9426C10.1254 21.1264 10.2226 21.2957 10.3515 21.4394C10.4804 21.5831 10.6382 21.698 10.8144 21.7767C10.9907 21.8555 11.1816 21.8962 11.3747 21.8962L17.246 21.895L17.2442 27.0778C17.2442 27.2602 17.3166 27.4352 17.4456 27.5642C17.5746 27.6932 17.7496 27.7657 17.9321 27.7657C18.1145 27.7657 18.2895 27.6932 18.4185 27.5642C18.5475 27.4352 18.6199 27.2602 18.6199 27.0778L18.6181 21.895L24.487 21.895C24.6678 21.8954 24.8469 21.8601 25.014 21.7912C25.1812 21.7222 25.3331 21.621 25.4611 21.4933C25.4842 21.4702 25.5067 21.4477 25.5297 21.4246C25.6587 21.2764 25.7543 21.1022 25.81 20.9138C25.8657 20.7254 25.8801 20.5272 25.8524 20.3327C25.4599 17.5532 24.0555 16.3786 23.0079 15.8851L22.9958 9.37455C22.9957 9.19396 22.9601 9.01514 22.8909 8.84832C22.8217 8.6815 22.7204 8.52994 22.5926 8.4023C22.4649 8.27466 22.3132 8.17343 22.1463 8.1044C21.9794 8.03538 21.8006 7.9999 21.62 8ZM21.62 9.37577L21.6315 16.3476C21.6318 16.4916 21.6773 16.6319 21.7616 16.7486C21.8459 16.8654 21.9647 16.9528 22.1013 16.9984C23.8264 17.5738 24.3369 19.4528 24.4882 20.5204L11.3741 20.5198C11.5163 19.1939 12.0626 18.3353 12.5997 17.7981C12.936 17.4526 13.3409 17.1814 13.7883 17.002C13.9255 16.9563 14.0449 16.8686 14.1293 16.7512C14.2137 16.6338 14.259 16.4928 14.2587 16.3482L14.2447 9.37516L21.62 9.37577Z" fill="#455871"/>
</svg>
