<svg width="36" height="36" viewBox="0 0 36 36" fill="none" xmlns="http://www.w3.org/2000/svg">
<path d="M27.2228 13.9925L22.0073 8.77784C21.8796 8.65013 21.728 8.54882 21.5612 8.4797C21.3943 8.41058 21.2155 8.375 21.0349 8.375C20.8543 8.375 20.6755 8.41058 20.5086 8.4797C20.3418 8.54882 20.1902 8.65013 20.0625 8.77784L15.4537 13.4013C14.5376 13.1142 12.4459 12.7679 10.2631 14.5305C10.1126 14.6515 9.98931 14.8028 9.90121 14.9746C9.81311 15.1464 9.76217 15.3348 9.75171 15.5276C9.74126 15.7203 9.77151 15.9132 9.84051 16.0935C9.90952 16.2738 10.0157 16.4375 10.1522 16.5741L14.3047 20.7249L10.6386 24.3884C10.5096 24.5174 10.4371 24.6924 10.4371 24.8748C10.4371 25.0572 10.5096 25.2322 10.6386 25.3612C10.7676 25.4902 10.9426 25.5627 11.125 25.5627C11.3075 25.5627 11.4824 25.4902 11.6114 25.3612L15.2749 21.6951L19.4249 25.845C19.5524 25.9731 19.704 26.0748 19.871 26.1443C20.0379 26.2137 20.2169 26.2496 20.3977 26.2498C20.4303 26.2498 20.4621 26.2498 20.4948 26.2498C20.6908 26.2362 20.8816 26.1806 21.0542 26.0867C21.2268 25.9929 21.3772 25.863 21.4951 25.7058C23.1829 23.4628 23.0205 21.6392 22.6286 20.5496L27.2237 15.9373C27.3513 15.8096 27.4526 15.6579 27.5216 15.491C27.5907 15.3242 27.6262 15.1453 27.6261 14.9647C27.626 14.7841 27.5904 14.6053 27.5212 14.4385C27.452 14.2717 27.3506 14.1202 27.2228 13.9925ZM26.25 14.9653L21.3284 19.9033C21.2267 20.0053 21.1597 20.1367 21.1367 20.2789C21.1137 20.421 21.136 20.5668 21.2003 20.6957C22.0133 22.3224 21.0456 24.012 20.3977 24.8739L11.125 15.6004C12.1631 14.7634 13.1566 14.5425 13.9163 14.5425C14.3983 14.5359 14.8764 14.6305 15.3196 14.8201C15.4489 14.8848 15.5954 14.9071 15.7381 14.8838C15.8808 14.8605 16.0125 14.7928 16.1145 14.6903L21.0353 9.74979L26.25 14.9645V14.9653Z" fill="#455871"/>
</svg>
